mtllib lamp.mtl
o Matrix_1
g Matrix_1
usemtl lamp_AtlasMaterial
v -11.0 23.0 0.0
v -11.0 23.0 2.0
v -6.0 23.0 2.0
v -6.0 23.0 0.0
v -14.0 22.0 0.0
v -14.0 22.0 2.0
v -11.0 22.0 2.0
v -11.0 22.0 0.0
v -6.0 22.0 0.0
v -6.0 22.0 2.0
v -3.0 22.0 2.0
v -3.0 22.0 0.0
v -22.0 19.0 -1.0
v -22.0 19.0 3.0
v -21.0 19.0 3.0
v -21.0 19.0 -1.0
v -20.0 21.0 0.0
v -20.0 21.0 2.0
v -18.0 21.0 2.0
v -18.0 21.0 0.0
v -17.0 19.0 -1.0
v -17.0 19.0 3.0
v -16.0 19.0 3.0
v -16.0 19.0 -1.0
v -1.0 26.0 0.0
v -1.0 26.0 2.0
v 1.0 26.0 2.0
v 1.0 26.0 0.0
v -21.0 19.0 -2.0
v -21.0 19.0 0.0
v -20.0 19.0 0.0
v -20.0 19.0 -2.0
v -21.0 19.0 2.0
v -21.0 19.0 4.0
v -20.0 19.0 4.0
v -20.0 19.0 2.0
v -21.0 20.0 0.0
v -21.0 20.0 2.0
v -20.0 20.0 2.0
v -20.0 20.0 0.0
v -20.0 19.0 -1.0
v -18.0 19.0 -1.0
v -18.0 19.0 -2.0
v -20.0 19.0 3.0
v -18.0 19.0 4.0
v -18.0 19.0 3.0
v -20.0 20.0 -1.0
v -18.0 20.0 0.0
v -18.0 20.0 -1.0
v -20.0 20.0 3.0
v -18.0 20.0 3.0
v -18.0 20.0 2.0
v -18.0 19.0 0.0
v -17.0 19.0 0.0
v -17.0 19.0 -2.0
v -18.0 19.0 2.0
v -17.0 19.0 4.0
v -17.0 19.0 2.0
v -17.0 20.0 2.0
v -17.0 20.0 0.0
v -16.0 20.0 0.0
v -16.0 20.0 2.0
v -15.0 20.0 2.0
v -15.0 20.0 0.0
v -15.0 21.0 0.0
v -15.0 21.0 2.0
v -14.0 21.0 2.0
v -14.0 21.0 0.0
v -3.0 21.0 0.0
v -3.0 21.0 2.0
v -2.0 21.0 2.0
v -2.0 21.0 0.0
v -2.0 20.0 0.0
v -2.0 20.0 2.0
v -1.0 20.0 2.0
v -1.0 20.0 0.0
v -2.0 25.0 0.0
v -2.0 25.0 2.0
v -1.0 25.0 2.0
v -1.0 25.0 0.0
v -1.0 25.0 -1.0
v 1.0 25.0 0.0
v 1.0 25.0 -1.0
v -1.0 25.0 3.0
v 1.0 25.0 3.0
v 1.0 25.0 2.0
v 2.0 25.0 2.0
v 2.0 25.0 0.0
v -21.0 16.0 2.0
v -21.0 16.0 0.0
v -18.0 16.0 0.0
v -18.0 16.0 2.0
v -21.0 17.0 0.0
v -21.0 17.0 -1.0
v -18.0 17.0 -1.0
v -18.0 17.0 0.0
v -21.0 17.0 3.0
v -21.0 17.0 2.0
v -18.0 17.0 2.0
v -18.0 17.0 3.0
v -21.0 18.0 -1.0
v -21.0 18.0 -2.0
v -17.0 18.0 -2.0
v -17.0 18.0 -1.0
v -21.0 18.0 4.0
v -21.0 18.0 3.0
v -17.0 18.0 3.0
v -17.0 18.0 4.0
v -17.0 18.0 2.0
v -17.0 18.0 0.0
v -15.0 18.0 0.0
v -15.0 18.0 2.0
v -13.0 21.0 2.0
v -13.0 21.0 0.0
v -11.0 21.0 0.0
v -11.0 21.0 2.0
v -6.0 21.0 2.0
v -6.0 21.0 0.0
v -4.0 21.0 0.0
v -4.0 21.0 2.0
v -1.0 -31.0 2.0
v -1.0 -31.0 0.0
v 1.0 -31.0 0.0
v 1.0 -31.0 2.0
v -22.0 17.0 2.0
v -22.0 17.0 0.0
v -17.0 17.0 0.0
v -17.0 17.0 2.0
v -18.0 18.0 0.0
v -18.0 18.0 -1.0
v -16.0 18.0 -1.0
v -16.0 18.0 0.0
v -18.0 18.0 3.0
v -18.0 18.0 2.0
v -16.0 18.0 2.0
v -16.0 18.0 3.0
v -15.0 19.0 2.0
v -15.0 19.0 0.0
v -14.0 19.0 0.0
v -14.0 19.0 2.0
v -14.0 20.0 2.0
v -14.0 20.0 0.0
v -13.0 20.0 0.0
v -13.0 20.0 2.0
v -4.0 20.0 2.0
v -4.0 20.0 0.0
v -3.0 20.0 0.0
v -3.0 20.0 2.0
v -3.0 19.0 2.0
v -3.0 19.0 0.0
v -2.0 19.0 0.0
v -2.0 19.0 2.0
v -2.0 18.0 2.0
v -2.0 18.0 0.0
v -1.0 18.0 0.0
v -1.0 18.0 2.0
v -2.0 24.0 2.0
v -2.0 24.0 0.0
v -1.0 24.0 0.0
v -1.0 24.0 2.0
v -1.0 24.0 -1.0
v 1.0 24.0 -1.0
v 1.0 24.0 0.0
v -1.0 24.0 3.0
v 1.0 24.0 2.0
v 1.0 24.0 3.0
v 2.0 24.0 0.0
v 2.0 24.0 2.0
v -22.0 18.0 0.0
v -22.0 18.0 -1.0
v -21.0 18.0 0.0
v -22.0 18.0 3.0
v -22.0 18.0 2.0
v -21.0 18.0 2.0
v -16.0 19.0 0.0
v -16.0 19.0 2.0
v -13.0 22.0 0.0
v -4.0 22.0 0.0
v -13.0 22.0 2.0
v -4.0 22.0 2.0
vn 0.0 1.0 0.0
vn 0.0 -1.0 0.0
vn -1.0 0.0 0.0
vn 1.0 0.0 0.0
vn 0.0 0.0 -1.0
vn 0.0 0.0 1.0
vt 0.015625 0.875
vt 0.015625 0.015625
vt 0.046875 0.015625
vt 0.046875 0.875
vt 0.078125 0.875
vt 0.078125 0.015625
vt 0.109375 0.015625
vt 0.109375 0.875
vt 0.140625 0.875
vt 0.140625 0.015625
vt 0.171875 0.015625
vt 0.171875 0.875
vt 0.203125 0.78125
vt 0.203125 0.015625
vt 0.234375 0.015625
vt 0.234375 0.78125
vt 0.265625 0.078125
vt 0.265625 0.015625
vt 0.296875 0.015625
vt 0.296875 0.078125
vt 0.328125 0.078125
vt 0.328125 0.015625
vt 0.34375 0.015625
vt 0.34375 0.078125
vt 0.375 0.078125
vt 0.375 0.015625
vt 0.390625 0.015625
vt 0.390625 0.078125
vt 0.421875 0.046875
vt 0.421875 0.015625
vt 0.5 0.015625
vt 0.5 0.046875
vt 0.53125 0.046875
vt 0.53125 0.015625
vt 0.609375 0.015625
vt 0.609375 0.046875
vt 0.640625 0.046875
vt 0.640625 0.015625
vt 0.6875 0.015625
vt 0.6875 0.046875
vt 0.71875 0.046875
vt 0.71875 0.015625
vt 0.765625 0.015625
vt 0.765625 0.046875
vt 0.796875 0.046875
vt 0.796875 0.015625
vt 0.84375 0.015625
vt 0.84375 0.046875
vt 0.875 0.046875
vt 0.875 0.015625
vt 0.90625 0.015625
vt 0.90625 0.046875
vt 0.9375 0.046875
vt 0.9375 0.015625
vt 0.96875 0.015625
vt 0.96875 0.046875
vt 0.265625 0.140625
vt 0.265625 0.109375
vt 0.296875 0.109375
vt 0.296875 0.140625
vt 0.328125 0.140625
vt 0.328125 0.109375
vt 0.359375 0.109375
vt 0.359375 0.140625
vt 0.390625 0.140625
vt 0.390625 0.109375
vt 0.421875 0.109375
vt 0.421875 0.140625
vt 0.453125 0.140625
vt 0.453125 0.109375
vt 0.484375 0.109375
vt 0.484375 0.140625
vt 0.515625 0.140625
vt 0.515625 0.109375
vt 0.53125 0.109375
vt 0.53125 0.140625
vt 0.5625 0.140625
vt 0.5625 0.109375
vt 0.578125 0.109375
vt 0.578125 0.140625
vt 0.609375 0.140625
vt 0.609375 0.109375
vt 0.625 0.109375
vt 0.625 0.140625
vt 0.65625 0.140625
vt 0.65625 0.109375
vt 0.671875 0.109375
vt 0.671875 0.140625
vt 0.703125 0.140625
vt 0.703125 0.109375
vt 0.71875 0.109375
vt 0.71875 0.140625
vt 0.75 0.140625
vt 0.75 0.109375
vt 0.765625 0.109375
vt 0.765625 0.140625
vt 0.796875 0.140625
vt 0.796875 0.109375
vt 0.8125 0.109375
vt 0.8125 0.140625
vt 0.84375 0.140625
vt 0.84375 0.109375
vt 0.859375 0.109375
vt 0.859375 0.140625
vt 0.890625 0.140625
vt 0.890625 0.109375
vt 0.90625 0.109375
vt 0.90625 0.140625
vt 0.9375 0.140625
vt 0.9375 0.109375
vt 0.953125 0.109375
vt 0.953125 0.140625
vt 0.265625 0.203125
vt 0.265625 0.171875
vt 0.28125 0.171875
vt 0.28125 0.203125
vt 0.3125 0.203125
vt 0.3125 0.171875
vt 0.328125 0.171875
vt 0.328125 0.203125
vt 0.359375 0.203125
vt 0.359375 0.171875
vt 0.375 0.171875
vt 0.375 0.203125
vt 0.40625 0.203125
vt 0.40625 0.171875
vt 0.421875 0.171875
vt 0.421875 0.203125
vt 0.453125 0.203125
vt 0.453125 0.171875
vt 0.46875 0.171875
vt 0.46875 0.203125
vt 0.5 0.203125
vt 0.5 0.171875
vt 0.515625 0.171875
vt 0.515625 0.203125
vt 0.546875 0.203125
vt 0.546875 0.171875
vt 0.5625 0.171875
vt 0.5625 0.203125
vt 0.59375 0.203125
vt 0.59375 0.171875
vt 0.609375 0.171875
vt 0.609375 0.203125
vt 0.640625 0.203125
vt 0.640625 0.171875
vt 0.65625 0.171875
vt 0.65625 0.203125
vt 0.6875 0.203125
vt 0.6875 0.171875
vt 0.703125 0.171875
vt 0.703125 0.203125
vt 0.734375 0.203125
vt 0.734375 0.171875
vt 0.75 0.171875
vt 0.75 0.203125
vt 0.78125 0.203125
vt 0.78125 0.171875
vt 0.796875 0.171875
vt 0.796875 0.203125
vt 0.828125 0.203125
vt 0.828125 0.171875
vt 0.84375 0.171875
vt 0.84375 0.203125
vt 0.875 0.203125
vt 0.875 0.171875
vt 0.890625 0.171875
vt 0.890625 0.203125
vt 0.921875 0.203125
vt 0.921875 0.171875
vt 0.9375 0.171875
vt 0.9375 0.203125
vt 0.96875 0.203125
vt 0.96875 0.171875
vt 0.984375 0.171875
vt 0.984375 0.203125
vt 0.265625 0.265625
vt 0.265625 0.234375
vt 0.28125 0.234375
vt 0.28125 0.265625
vt 0.3125 0.265625
vt 0.3125 0.234375
vt 0.328125 0.234375
vt 0.328125 0.265625
vt 0.359375 0.265625
vt 0.359375 0.234375
vt 0.375 0.234375
vt 0.375 0.265625
vt 0.40625 0.265625
vt 0.40625 0.234375
vt 0.421875 0.234375
vt 0.421875 0.265625
vt 0.453125 0.265625
vt 0.453125 0.234375
vt 0.46875 0.234375
vt 0.46875 0.265625
vt 0.5 0.265625
vt 0.5 0.234375
vt 0.515625 0.234375
vt 0.515625 0.265625
vt 0.546875 0.265625
vt 0.546875 0.234375
vt 0.5625 0.234375
vt 0.5625 0.265625
vt 0.59375 0.25
vt 0.59375 0.234375
vt 0.671875 0.234375
vt 0.671875 0.25
vt 0.703125 0.25
vt 0.703125 0.234375
vt 0.78125 0.234375
vt 0.78125 0.25
vt 0.8125 0.25
vt 0.8125 0.234375
vt 0.875 0.234375
vt 0.875 0.25
vt 0.90625 0.25
vt 0.90625 0.234375
vt 0.96875 0.234375
vt 0.96875 0.25
vt 0.265625 0.3125
vt 0.265625 0.296875
vt 0.328125 0.296875
vt 0.328125 0.3125
vt 0.359375 0.3125
vt 0.359375 0.296875
vt 0.421875 0.296875
vt 0.421875 0.3125
vt 0.453125 0.3125
vt 0.453125 0.296875
vt 0.515625 0.296875
vt 0.515625 0.3125
vt 0.546875 0.3125
vt 0.546875 0.296875
vt 0.59375 0.296875
vt 0.59375 0.3125
vt 0.625 0.3125
vt 0.625 0.296875
vt 0.671875 0.296875
vt 0.671875 0.3125
vt 0.703125 0.3125
vt 0.703125 0.296875
vt 0.75 0.296875
vt 0.75 0.3125
vt 0.78125 0.3125
vt 0.78125 0.296875
vt 0.828125 0.296875
vt 0.828125 0.3125
vt 0.859375 0.3125
vt 0.859375 0.296875
vt 0.90625 0.296875
vt 0.90625 0.3125
vt 0.9375 0.3125
vt 0.9375 0.296875
vt 0.984375 0.296875
vt 0.984375 0.3125
vt 0.265625 0.359375
vt 0.265625 0.34375
vt 0.296875 0.34375
vt 0.296875 0.359375
vt 0.328125 0.359375
vt 0.328125 0.34375
vt 0.359375 0.34375
vt 0.359375 0.359375
vt 0.390625 0.359375
vt 0.390625 0.34375
vt 0.421875 0.34375
vt 0.421875 0.359375
vt 0.453125 0.359375
vt 0.453125 0.34375
vt 0.484375 0.34375
vt 0.484375 0.359375
vt 0.515625 0.359375
vt 0.515625 0.34375
vt 0.546875 0.34375
vt 0.546875 0.359375
vt 0.578125 0.359375
vt 0.578125 0.34375
vt 0.609375 0.34375
vt 0.609375 0.359375
vt 0.640625 0.359375
vt 0.640625 0.34375
vt 0.671875 0.34375
vt 0.671875 0.359375
vt 0.703125 0.359375
vt 0.703125 0.34375
vt 0.734375 0.34375
vt 0.734375 0.359375
vt 0.765625 0.359375
vt 0.765625 0.34375
vt 0.796875 0.34375
vt 0.796875 0.359375
vt 0.828125 0.359375
vt 0.828125 0.34375
vt 0.859375 0.34375
vt 0.859375 0.359375
vt 0.890625 0.359375
vt 0.890625 0.34375
vt 0.921875 0.34375
vt 0.921875 0.359375
vt 0.953125 0.359375
vt 0.953125 0.34375
vt 0.984375 0.34375
vt 0.984375 0.359375
vt 0.265625 0.40625
vt 0.265625 0.390625
vt 0.296875 0.390625
vt 0.296875 0.40625
vt 0.328125 0.40625
vt 0.328125 0.390625
vt 0.359375 0.390625
vt 0.359375 0.40625
vt 0.390625 0.40625
vt 0.390625 0.390625
vt 0.421875 0.390625
vt 0.421875 0.40625
vt 0.453125 0.40625
vt 0.453125 0.390625
vt 0.484375 0.390625
vt 0.484375 0.40625
vt 0.515625 0.40625
vt 0.515625 0.390625
vt 0.546875 0.390625
vt 0.546875 0.40625
vt 0.578125 0.40625
vt 0.578125 0.390625
vt 0.609375 0.390625
vt 0.609375 0.40625
vt 0.640625 0.40625
vt 0.640625 0.390625
vt 0.671875 0.390625
vt 0.671875 0.40625
vt 0.703125 0.40625
vt 0.703125 0.390625
vt 0.734375 0.390625
vt 0.734375 0.40625
vt 0.765625 0.40625
vt 0.765625 0.390625
vt 0.796875 0.390625
vt 0.796875 0.40625
vt 0.828125 0.40625
vt 0.828125 0.390625
vt 0.859375 0.390625
vt 0.859375 0.40625
vt 0.890625 0.40625
vt 0.890625 0.390625
vt 0.921875 0.390625
vt 0.921875 0.40625
vt 0.953125 0.40625
vt 0.953125 0.390625
vt 0.984375 0.390625
vt 0.984375 0.40625
vt 0.265625 0.453125
vt 0.265625 0.4375
vt 0.296875 0.4375
vt 0.296875 0.453125
vt 0.328125 0.453125
vt 0.328125 0.4375
vt 0.359375 0.4375
vt 0.359375 0.453125
vt 0.390625 0.453125
vt 0.390625 0.4375
vt 0.421875 0.4375
vt 0.421875 0.453125
vt 0.453125 0.453125
vt 0.453125 0.4375
vt 0.484375 0.4375
vt 0.484375 0.453125
vt 0.515625 0.453125
vt 0.515625 0.4375
vt 0.546875 0.4375
vt 0.546875 0.453125
vt 0.578125 0.453125
vt 0.578125 0.4375
vt 0.609375 0.4375
vt 0.609375 0.453125
vt 0.640625 0.453125
vt 0.640625 0.4375
vt 0.671875 0.4375
vt 0.671875 0.453125
vt 0.703125 0.453125
vt 0.703125 0.4375
vt 0.734375 0.4375
vt 0.734375 0.453125
vt 0.765625 0.453125
vt 0.765625 0.4375
vt 0.796875 0.4375
vt 0.796875 0.453125
vt 0.828125 0.453125
vt 0.828125 0.4375
vt 0.859375 0.4375
vt 0.859375 0.453125
vt 0.890625 0.453125
vt 0.890625 0.4375
vt 0.921875 0.4375
vt 0.921875 0.453125
vt 0.953125 0.453125
vt 0.953125 0.4375
vt 0.984375 0.4375
vt 0.984375 0.453125
vt 0.265625 0.5
vt 0.265625 0.484375
vt 0.296875 0.484375
vt 0.296875 0.5
vt 0.328125 0.5
vt 0.328125 0.484375
vt 0.359375 0.484375
vt 0.359375 0.5
vt 0.390625 0.5
vt 0.390625 0.484375
vt 0.421875 0.484375
vt 0.421875 0.5
vt 0.453125 0.5
vt 0.453125 0.484375
vt 0.484375 0.484375
vt 0.484375 0.5
vt 0.515625 0.5
vt 0.515625 0.484375
vt 0.546875 0.484375
vt 0.546875 0.5
vt 0.578125 0.5
vt 0.578125 0.484375
vt 0.609375 0.484375
vt 0.609375 0.5
vt 0.640625 0.5
vt 0.640625 0.484375
vt 0.671875 0.484375
vt 0.671875 0.5
vt 0.703125 0.5
vt 0.703125 0.484375
vt 0.734375 0.484375
vt 0.734375 0.5
vt 0.765625 0.5
vt 0.765625 0.484375
vt 0.796875 0.484375
vt 0.796875 0.5
vt 0.828125 0.5
vt 0.828125 0.484375
vt 0.859375 0.484375
vt 0.859375 0.5
vt 0.890625 0.5
vt 0.890625 0.484375
vt 0.921875 0.484375
vt 0.921875 0.5
vt 0.953125 0.5
vt 0.953125 0.484375
vt 0.984375 0.484375
vt 0.984375 0.5
vt 0.265625 0.546875
vt 0.265625 0.53125
vt 0.296875 0.53125
vt 0.296875 0.546875
vt 0.328125 0.546875
vt 0.328125 0.53125
vt 0.34375 0.53125
vt 0.34375 0.546875
vt 0.375 0.546875
vt 0.375 0.53125
vt 0.390625 0.53125
vt 0.390625 0.546875
vt 0.421875 0.546875
vt 0.421875 0.53125
vt 0.4375 0.53125
vt 0.4375 0.546875
vt 0.46875 0.546875
vt 0.46875 0.53125
vt 0.484375 0.53125
vt 0.484375 0.546875
vt 0.515625 0.546875
vt 0.515625 0.53125
vt 0.53125 0.53125
vt 0.53125 0.546875
vt 0.5625 0.546875
vt 0.5625 0.53125
vt 0.578125 0.53125
vt 0.578125 0.546875
vt 0.609375 0.546875
vt 0.609375 0.53125
vt 0.625 0.53125
vt 0.625 0.546875
vt 0.65625 0.546875
vt 0.65625 0.53125
vt 0.671875 0.53125
vt 0.671875 0.546875
vt 0.703125 0.546875
vt 0.703125 0.53125
vt 0.71875 0.53125
vt 0.71875 0.546875
vt 0.75 0.546875
vt 0.75 0.53125
vt 0.765625 0.53125
vt 0.765625 0.546875
vt 0.796875 0.546875
vt 0.796875 0.53125
vt 0.8125 0.53125
vt 0.8125 0.546875
vt 0.84375 0.546875
vt 0.84375 0.53125
vt 0.859375 0.53125
vt 0.859375 0.546875
vt 0.890625 0.546875
vt 0.890625 0.53125
vt 0.90625 0.53125
vt 0.90625 0.546875
vt 0.9375 0.546875
vt 0.9375 0.53125
vt 0.953125 0.53125
vt 0.953125 0.546875
vt 0.265625 0.59375
vt 0.265625 0.578125
vt 0.28125 0.578125
vt 0.28125 0.59375
vt 0.3125 0.59375
vt 0.3125 0.578125
vt 0.328125 0.578125
vt 0.328125 0.59375
vt 0.359375 0.59375
vt 0.359375 0.578125
vt 0.375 0.578125
vt 0.375 0.59375
vt 0.40625 0.59375
vt 0.40625 0.578125
vt 0.421875 0.578125
vt 0.421875 0.59375
vt 0.453125 0.59375
vt 0.453125 0.578125
vt 0.46875 0.578125
vt 0.46875 0.59375
vt 0.5 0.59375
vt 0.5 0.578125
vt 0.515625 0.578125
vt 0.515625 0.59375
vt 0.546875 0.59375
vt 0.546875 0.578125
vt 0.5625 0.578125
vt 0.5625 0.59375
vt 0.59375 0.59375
vt 0.59375 0.578125
vt 0.609375 0.578125
vt 0.609375 0.59375
vt 0.640625 0.59375
vt 0.640625 0.578125
vt 0.65625 0.578125
vt 0.65625 0.59375
vt 0.6875 0.59375
vt 0.6875 0.578125
vt 0.703125 0.578125
vt 0.703125 0.59375
vt 0.734375 0.59375
vt 0.734375 0.578125
vt 0.75 0.578125
vt 0.75 0.59375
vt 0.78125 0.59375
vt 0.78125 0.578125
vt 0.796875 0.578125
vt 0.796875 0.59375
vt 0.828125 0.59375
vt 0.828125 0.578125
vt 0.84375 0.578125
vt 0.84375 0.59375
vt 0.875 0.59375
vt 0.875 0.578125
vt 0.890625 0.578125
vt 0.890625 0.59375
vt 0.921875 0.59375
vt 0.921875 0.578125
vt 0.9375 0.578125
vt 0.9375 0.59375
vt 0.96875 0.59375
vt 0.96875 0.578125
vt 0.984375 0.578125
vt 0.984375 0.59375
vt 0.265625 0.640625
vt 0.265625 0.625
vt 0.28125 0.625
vt 0.28125 0.640625
vt 0.3125 0.640625
vt 0.3125 0.625
vt 0.328125 0.625
vt 0.328125 0.640625
vt 0.359375 0.640625
vt 0.359375 0.625
vt 0.375 0.625
vt 0.375 0.640625
vt 0.40625 0.640625
vt 0.40625 0.625
vt 0.421875 0.625
vt 0.421875 0.640625
vt 0.453125 0.640625
vt 0.453125 0.625
vt 0.46875 0.625
vt 0.46875 0.640625
vt 0.5 0.640625
vt 0.5 0.625
vt 0.515625 0.625
vt 0.515625 0.640625
f 1/33/1 2/34/1 3/35/1 4/36/1
f 5/41/1 6/42/1 7/43/1 8/44/1
f 9/37/1 10/38/1 11/39/1 12/40/1
f 13/25/1 14/26/1 15/27/1 16/28/1
f 17/53/1 18/54/1 19/55/1 20/56/1
f 21/21/1 22/22/1 23/23/1 24/24/1
f 25/69/1 26/70/1 27/71/1 28/72/1
f 29/189/1 30/190/1 31/191/1 32/192/1
f 33/201/1 34/202/1 35/203/1 36/204/1
f 37/177/1 38/178/1 39/179/1 40/180/1
f 32/377/1 41/378/1 42/379/1 43/380/1
f 44/357/1 35/358/1 45/359/1 46/360/1
f 47/337/1 40/338/1 48/339/1 49/340/1
f 39/333/1 50/334/1 51/335/1 52/336/1
f 43/197/1 53/198/1 54/199/1 55/200/1
f 56/185/1 45/186/1 57/187/1 58/188/1
f 48/117/1 52/118/1 59/119/1 60/120/1
f 61/129/1 62/130/1 63/131/1 64/132/1
f 65/125/1 66/126/1 67/127/1 68/128/1
f 69/105/1 70/106/1 71/107/1 72/108/1
f 73/101/1 74/102/1 75/103/1 76/104/1
f 77/113/1 78/114/1 79/115/1 80/116/1
f 81/433/1 80/434/1 82/435/1 83/436/1
f 79/429/1 84/430/1 85/431/1 86/432/1
f 82/109/1 86/110/1 87/111/1 88/112/1
f 7/29/2 8/30/2 9/31/2 10/32/2
f 89/45/2 90/46/2 91/47/2 92/48/2
f 93/237/2 94/238/2 95/239/2 96/240/2
f 97/233/2 98/234/2 99/235/2 100/236/2
f 101/221/2 102/222/2 103/223/2 104/224/2
f 105/217/2 106/218/2 107/219/2 108/220/2
f 109/61/2 110/62/2 111/63/2 112/64/2
f 113/65/2 114/66/2 115/67/2 116/68/2
f 117/57/2 118/58/2 119/59/2 120/60/2
f 121/49/2 122/50/2 123/51/2 124/52/2
f 125/93/2 126/94/2 93/95/2 98/96/2
f 99/193/2 96/194/2 127/195/2 128/196/2
f 129/269/2 130/270/2 131/271/2 132/272/2
f 133/277/2 134/278/2 135/279/2 136/280/2
f 137/161/2 138/162/2 139/163/2 140/164/2
f 141/145/2 142/146/2 143/147/2 144/148/2
f 145/141/2 146/142/2 147/143/2 148/144/2
f 149/181/2 150/182/2 151/183/2 152/184/2
f 153/169/2 154/170/2 155/171/2 156/172/2
f 157/173/2 158/174/2 159/175/2 160/176/2
f 159/293/2 161/294/2 162/295/2 163/296/2
f 164/289/2 160/290/2 165/291/2 166/292/2
f 165/85/2 163/86/2 167/87/2 168/88/2
f 169/549/2 170/550/2 101/551/2 171/552/2
f 172/545/2 173/546/2 174/547/2 106/548/2
f 155/13/3 122/14/3 121/15/3 156/16/3
f 159/17/3 76/18/3 75/19/3 160/20/3
f 13/213/3 170/214/3 172/215/3 14/216/3
f 169/297/3 126/298/3 125/299/3 173/300/3
f 93/281/3 90/282/3 89/283/3 98/284/3
f 37/285/3 30/286/3 33/287/3 38/288/3
f 17/301/3 40/302/3 39/303/3 18/304/3
f 61/317/3 175/318/3 176/319/3 62/320/3
f 65/321/3 64/322/3 63/323/3 66/324/3
f 5/325/3 68/326/3 67/327/3 6/328/3
f 1/305/3 8/306/3 7/307/3 2/308/3
f 9/309/3 118/310/3 117/311/3 10/312/3
f 119/313/3 146/314/3 145/315/3 120/316/3
f 147/261/3 150/262/3 149/263/3 148/264/3
f 151/257/3 154/258/3 153/259/3 152/260/3
f 77/265/3 158/266/3 157/267/3 78/268/3
f 25/273/3 80/274/3 79/275/3 26/276/3
f 101/557/3 94/558/3 93/559/3 171/560/3
f 174/553/3 98/554/3 97/555/3 106/556/3
f 29/541/3 102/542/3 101/543/3 16/544/3
f 15/529/3 106/530/3 105/531/3 34/532/3
f 47/525/3 41/526/3 31/527/3 40/528/3
f 39/537/3 36/538/3 44/539/3 50/540/3
f 81/533/3 161/534/3 159/535/3 80/536/3
f 79/585/3 160/586/3 164/587/3 84/588/3
f 165/5/4 124/6/4 123/7/4 163/8/4
f 99/409/4 92/410/4 91/411/4 96/412/4
f 19/413/4 52/414/4 48/415/4 20/416/4
f 109/417/4 128/418/4 127/419/4 110/420/4
f 59/405/4 58/406/4 54/407/4 60/408/4
f 137/393/4 112/394/4 111/395/4 138/396/4
f 141/397/4 140/398/4 139/399/4 142/400/4
f 113/401/4 144/402/4 143/403/4 114/404/4
f 7/421/4 116/422/4 115/423/4 8/424/4
f 3/441/4 10/442/4 9/443/4 4/444/4
f 11/445/4 70/446/4 69/447/4 12/448/4
f 71/449/4 74/450/4 73/451/4 72/452/4
f 27/437/4 86/438/4 82/439/4 28/440/4
f 87/425/4 168/426/4 167/427/4 88/428/4
f 129/581/4 96/582/4 95/583/4 130/584/4
f 133/593/4 100/594/4 99/595/4 134/596/4
f 48/589/4 53/590/4 42/591/4 49/592/4
f 51/577/4 46/578/4 56/579/4 52/580/4
f 21/565/4 104/566/4 103/567/4 55/568/4
f 57/561/4 108/562/4 107/563/4 22/564/4
f 175/573/4 132/574/4 131/575/4 24/576/4
f 23/569/4 136/570/4 135/571/4 176/572/4
f 82/477/4 163/478/4 162/479/4 83/480/4
f 85/473/4 166/474/4 165/475/4 86/476/4
f 163/1/5 123/2/5 122/3/5 159/4/5
f 4/205/5 9/206/5 8/207/5 1/208/5
f 96/253/5 91/254/5 90/255/5 93/256/5
f 130/245/5 95/246/5 94/247/5 101/248/5
f 55/229/5 103/230/5 102/231/5 29/232/5
f 49/389/5 42/390/5 41/391/5 47/392/5
f 20/345/5 48/346/5 40/347/5 17/348/5
f 64/121/5 111/122/5 132/123/5 61/124/5
f 68/73/5 139/74/5 138/75/5 65/76/5
f 177/77/5 143/78/5 142/79/5 5/80/5
f 8/349/5 115/350/5 114/351/5 177/352/5
f 178/353/5 119/354/5 118/355/5 9/356/5
f 12/97/5 147/98/5 146/99/5 178/100/5
f 72/89/5 151/90/5 150/91/5 69/92/5
f 76/81/5 155/82/5 154/83/5 73/84/5
f 83/341/5 162/342/5 161/343/5 81/344/5
f 28/329/5 82/330/5 80/331/5 25/332/5
f 171/485/5 93/486/5 126/487/5 169/488/5
f 16/481/5 101/482/5 170/483/5 13/484/5
f 40/469/5 31/470/5 30/471/5 37/472/5
f 110/457/5 127/458/5 96/459/5 129/460/5
f 60/453/5 54/454/5 53/455/5 48/456/5
f 24/465/5 131/466/5 104/467/5 21/468/5
f 80/461/5 159/462/5 158/463/5 77/464/5
f 88/513/5 167/514/5 163/515/5 82/516/5
f 160/9/6 121/10/6 124/11/6 165/12/6
f 2/209/6 7/210/6 10/211/6 3/212/6
f 98/241/6 89/242/6 92/243/6 99/244/6
f 106/249/6 97/250/6 100/251/6 133/252/6
f 34/225/6 105/226/6 108/227/6 57/228/6
f 50/381/6 44/382/6 46/383/6 51/384/6
f 18/385/6 39/386/6 52/387/6 19/388/6
f 62/133/6 135/134/6 112/135/6 63/136/6
f 66/137/6 137/138/6 140/139/6 67/140/6
f 6/149/6 141/150/6 144/151/6 179/152/6
f 179/373/6 113/374/6 116/375/6 7/376/6
f 10/361/6 117/362/6 120/363/6 180/364/6
f 180/165/6 145/166/6 148/167/6 11/168/6
f 70/157/6 149/158/6 152/159/6 71/160/6
f 74/153/6 153/154/6 156/155/6 75/156/6
f 84/365/6 164/366/6 166/367/6 85/368/6
f 26/369/6 79/370/6 86/371/6 27/372/6
f 173/509/6 125/510/6 98/511/6 174/512/6
f 14/521/6 172/522/6 106/523/6 15/524/6
f 38/517/6 33/518/6 36/519/6 39/520/6
f 134/505/6 99/506/6 128/507/6 109/508/6
f 52/493/6 56/494/6 58/495/6 59/496/6
f 22/489/6 107/490/6 136/491/6 23/492/6
f 78/501/6 157/502/6 160/503/6 79/504/6
f 86/497/6 165/498/6 168/499/6 87/500/6
